<svg xmlns="http://www.w3.org/2000/svg" xmlns:xlink="http://www.w3.org/1999/xlink" width="48" zoomAndPan="magnify" viewBox="0 0 36 36.000001" height="48" preserveAspectRatio="xMidYMid meet" version="1.2"><defs><clipPath id="45f0650e95"><path d="M 0.488281 0 L 35.511719 0 L 35.511719 35.027344 L 0.488281 35.027344 Z M 0.488281 0 "/></clipPath><clipPath id="5df639825d"><path d="M 7 3.945312 L 28.789062 3.945312 L 28.789062 33 L 7 33 Z M 7 3.945312 "/></clipPath></defs><g id="d733d040ad"><g clip-rule="nonzero" clip-path="url(#45f0650e95)"><path style=" stroke:none;fill-rule:nonzero;fill:#ffffff;fill-opacity:1;" d="M 0.488281 0 L 35.511719 0 L 35.511719 35.027344 L 0.488281 35.027344 Z M 0.488281 0 "/><path style=" stroke:none;fill-rule:nonzero;fill:#ffffff;fill-opacity:1;" d="M 0.488281 0 L 35.511719 0 L 35.511719 35.027344 L 0.488281 35.027344 Z M 0.488281 0 "/></g><g clip-rule="nonzero" clip-path="url(#5df639825d)"><path style=" stroke:none;fill-rule:evenodd;fill:#00bf63;fill-opacity:1;" d="M 7.046875 32.152344 L 7.046875 6.796875 C 7.046875 6.519531 7.214844 6.128906 7.414062 5.925781 L 9.027344 4.316406 C 9.230469 4.113281 9.625 3.945312 9.90625 3.945312 L 28.0625 3.945312 C 28.34375 3.945312 28.574219 4.175781 28.574219 4.449219 L 28.574219 29.800781 C 28.574219 30.078125 28.40625 30.46875 28.207031 30.671875 L 26.59375 32.285156 C 26.390625 32.488281 25.996094 32.652344 25.714844 32.652344 L 7.558594 32.652344 C 7.277344 32.652344 7.046875 32.421875 7.046875 32.152344 Z M 7.046875 32.152344 "/></g><path style=" stroke:none;fill-rule:evenodd;fill:#ffffff;fill-opacity:1;" d="M 26.523438 6.515625 L 26.523438 30.902344 L 27.550781 29.875 L 27.550781 4.972656 L 9.824219 4.972656 L 8.796875 5.996094 L 26.011719 5.996094 C 26.296875 5.996094 26.523438 6.226562 26.523438 6.515625 Z M 26.523438 6.515625 "/><g style="fill:#ffffff;fill-opacity:1;"><g transform="translate(9.910228, 17.703357)"><path style="stroke:none" d="M 1.472656 -0.0625 C 1.472656 0.0234375 1.441406 0.101562 1.382812 0.167969 C 1.351562 0.203125 1.308594 0.234375 1.261719 0.257812 C 1.214844 0.277344 1.160156 0.292969 1.09375 0.304688 C 1.003906 0.320312 0.878906 0.328125 0.71875 0.328125 L 0.710938 0.328125 L 0.4375 0.3125 L 0.433594 0.3125 C 0.335938 0.304688 0.257812 0.292969 0.199219 0.277344 C 0.148438 0.261719 0.101562 0.242188 0.0625 0.214844 C 0.0234375 0.1875 -0.0078125 0.15625 -0.0351562 0.117188 C -0.0742188 0.0585938 -0.09375 -0.00390625 -0.09375 -0.0742188 L -0.09375 -3.160156 C -0.09375 -3.246094 -0.0664062 -3.320312 -0.0078125 -3.386719 C 0.0234375 -3.425781 0.0625 -3.457031 0.113281 -3.484375 C 0.160156 -3.507812 0.21875 -3.527344 0.292969 -3.539062 C 0.386719 -3.554688 0.519531 -3.5625 0.691406 -3.5625 C 0.863281 -3.5625 0.996094 -3.554688 1.089844 -3.539062 C 1.160156 -3.527344 1.21875 -3.507812 1.269531 -3.484375 C 1.316406 -3.457031 1.355469 -3.425781 1.390625 -3.386719 C 1.445312 -3.320312 1.472656 -3.246094 1.472656 -3.160156 L 1.472656 -1.984375 L 1.152344 -1.984375 L 0.859375 -2.121094 L 1.421875 -3.300781 C 1.480469 -3.421875 1.597656 -3.5 1.765625 -3.527344 C 1.84375 -3.542969 1.949219 -3.546875 2.082031 -3.546875 C 2.300781 -3.546875 2.476562 -3.539062 2.601562 -3.519531 C 2.679688 -3.503906 2.75 -3.484375 2.804688 -3.460938 C 2.921875 -3.40625 3 -3.324219 3.03125 -3.214844 L 3.046875 -3.167969 L 3.046875 -3.121094 C 3.046875 -3.0625 3.035156 -3.007812 3.007812 -2.957031 L 3.003906 -2.953125 L 2.199219 -1.5 L 1.917969 -1.65625 L 2.179688 -1.847656 L 3.171875 -0.476562 L 3.171875 -0.371094 C 3.171875 -0.289062 3.140625 -0.214844 3.082031 -0.148438 C 3.070312 -0.136719 3.058594 -0.121094 3.042969 -0.109375 C 3.023438 -0.0898438 2.996094 -0.0703125 2.960938 -0.0429688 L 2.761719 -0.292969 L 2.972656 -0.0507812 C 2.800781 0.0976562 2.601562 0.214844 2.375 0.296875 C 2.28125 0.332031 2.1875 0.351562 2.089844 0.351562 L 2.078125 0.351562 L 1.925781 0.335938 L 1.902344 0.332031 C 1.804688 0.308594 1.71875 0.265625 1.644531 0.203125 C 1.574219 0.144531 1.515625 0.0703125 1.464844 -0.015625 L 0.9375 -1.023438 L 1.222656 -1.171875 L 1.222656 -0.851562 L 1.152344 -0.851562 L 1.152344 -1.171875 L 1.472656 -1.171875 Z M 0.828125 -0.0625 L 0.828125 -1.496094 L 1.417969 -1.496094 L 2.03125 -0.324219 C 2.042969 -0.304688 2.050781 -0.296875 2.058594 -0.292969 L 1.980469 0.0195312 L 2.007812 -0.300781 L 2.117188 -0.292969 L 2.089844 0.0273438 L 2.089844 -0.292969 C 2.109375 -0.292969 2.128906 -0.296875 2.152344 -0.308594 C 2.304688 -0.363281 2.4375 -0.441406 2.550781 -0.539062 L 2.554688 -0.542969 L 2.5625 -0.546875 C 2.585938 -0.566406 2.601562 -0.582031 2.613281 -0.589844 C 2.609375 -0.585938 2.609375 -0.585938 2.605469 -0.582031 C 2.59375 -0.570312 2.585938 -0.558594 2.578125 -0.546875 C 2.542969 -0.492188 2.527344 -0.4375 2.527344 -0.371094 L 2.847656 -0.371094 L 2.589844 -0.183594 L 1.539062 -1.632812 L 2.4375 -3.257812 L 2.71875 -3.101562 L 2.433594 -3.246094 C 2.414062 -3.207031 2.402344 -3.164062 2.402344 -3.121094 L 2.726562 -3.121094 L 2.417969 -3.027344 C 2.429688 -2.976562 2.457031 -2.9375 2.496094 -2.902344 C 2.511719 -2.890625 2.527344 -2.878906 2.539062 -2.871094 C 2.542969 -2.871094 2.542969 -2.871094 2.542969 -2.871094 C 2.542969 -2.871094 2.539062 -2.871094 2.535156 -2.875 C 2.527344 -2.875 2.511719 -2.878906 2.496094 -2.882812 C 2.40625 -2.898438 2.265625 -2.902344 2.082031 -2.902344 C 1.988281 -2.902344 1.917969 -2.902344 1.875 -2.894531 C 1.871094 -2.890625 1.867188 -2.890625 1.863281 -2.890625 C 1.867188 -2.890625 1.871094 -2.894531 1.878906 -2.894531 C 1.894531 -2.902344 1.910156 -2.914062 1.925781 -2.925781 C 1.957031 -2.949219 1.984375 -2.984375 2.003906 -3.023438 L 1.441406 -1.84375 L 0.828125 -1.984375 L 0.828125 -3.160156 C 0.828125 -3.089844 0.851562 -3.027344 0.898438 -2.972656 C 0.921875 -2.945312 0.945312 -2.925781 0.976562 -2.910156 C 0.984375 -2.90625 0.992188 -2.902344 1 -2.898438 C 0.996094 -2.902344 0.988281 -2.902344 0.980469 -2.902344 C 0.921875 -2.914062 0.824219 -2.917969 0.691406 -2.917969 C 0.554688 -2.917969 0.457031 -2.914062 0.398438 -2.902344 C 0.390625 -2.902344 0.386719 -2.902344 0.382812 -2.898438 C 0.386719 -2.902344 0.394531 -2.90625 0.40625 -2.910156 C 0.433594 -2.925781 0.460938 -2.945312 0.484375 -2.972656 C 0.53125 -3.027344 0.550781 -3.089844 0.550781 -3.160156 L 0.550781 -0.0742188 C 0.550781 -0.136719 0.535156 -0.191406 0.5 -0.242188 C 0.480469 -0.273438 0.453125 -0.300781 0.425781 -0.320312 C 0.40625 -0.332031 0.390625 -0.339844 0.375 -0.34375 C 0.394531 -0.339844 0.429688 -0.335938 0.484375 -0.332031 L 0.460938 -0.0078125 L 0.476562 -0.332031 L 0.734375 -0.316406 L 0.71875 0.00390625 L 0.71875 -0.316406 C 0.84375 -0.316406 0.9375 -0.320312 0.992188 -0.332031 C 1 -0.332031 1.003906 -0.332031 1.007812 -0.332031 C 1 -0.332031 0.992188 -0.328125 0.984375 -0.324219 C 0.953125 -0.3125 0.929688 -0.289062 0.902344 -0.261719 C 0.855469 -0.207031 0.828125 -0.140625 0.828125 -0.0625 Z M 0.828125 -0.0625 "/></g></g><g style="fill:#ffffff;fill-opacity:1;"><g transform="translate(12.763882, 17.703357)"><path style="stroke:none" d="M 0.210938 -0.792969 L 0.210938 -2.429688 L 0.535156 -2.429688 L 0.535156 -2.109375 L 0.207031 -2.109375 C 0.125 -2.109375 0.046875 -2.132812 -0.0195312 -2.183594 C -0.0703125 -2.21875 -0.109375 -2.265625 -0.140625 -2.324219 C -0.179688 -2.386719 -0.203125 -2.472656 -0.222656 -2.578125 C -0.234375 -2.660156 -0.238281 -2.742188 -0.238281 -2.824219 C -0.238281 -2.910156 -0.234375 -2.988281 -0.222656 -3.070312 C -0.203125 -3.175781 -0.179688 -3.261719 -0.140625 -3.328125 C -0.109375 -3.386719 -0.0703125 -3.433594 -0.0195312 -3.46875 C 0.046875 -3.519531 0.125 -3.542969 0.207031 -3.542969 L 1.753906 -3.542969 C 1.839844 -3.542969 1.914062 -3.519531 1.984375 -3.464844 C 2.03125 -3.429688 2.070312 -3.382812 2.101562 -3.324219 C 2.140625 -3.257812 2.164062 -3.171875 2.179688 -3.070312 L 1.859375 -3.023438 L 2.175781 -3.085938 C 2.191406 -3 2.199219 -2.914062 2.199219 -2.824219 C 2.199219 -2.738281 2.191406 -2.652344 2.175781 -2.566406 L 1.859375 -2.628906 L 2.179688 -2.582031 C 2.164062 -2.480469 2.140625 -2.394531 2.101562 -2.328125 C 2.070312 -2.269531 2.03125 -2.222656 1.984375 -2.183594 C 1.914062 -2.132812 1.839844 -2.109375 1.753906 -2.109375 L 1.445312 -2.109375 L 1.445312 -2.429688 L 1.765625 -2.429688 L 1.765625 -0.792969 L 1.445312 -0.792969 L 1.445312 -1.113281 L 1.765625 -1.113281 C 1.851562 -1.113281 1.925781 -1.089844 1.996094 -1.039062 C 2.042969 -1.003906 2.082031 -0.957031 2.117188 -0.898438 C 2.152344 -0.832031 2.179688 -0.75 2.195312 -0.644531 L 1.878906 -0.59375 L 2.195312 -0.652344 C 2.210938 -0.570312 2.21875 -0.484375 2.21875 -0.394531 C 2.21875 -0.308594 2.210938 -0.222656 2.195312 -0.136719 L 1.878906 -0.199219 L 2.195312 -0.144531 C 2.179688 -0.0429688 2.152344 0.0429688 2.117188 0.109375 C 2.082031 0.164062 2.042969 0.210938 1.996094 0.246094 C 1.925781 0.296875 1.851562 0.320312 1.765625 0.320312 L 0.214844 0.320312 C 0.132812 0.320312 0.0546875 0.296875 -0.0117188 0.246094 C -0.0625 0.207031 -0.101562 0.160156 -0.132812 0.101562 C -0.167969 0.0351562 -0.195312 -0.0507812 -0.207031 -0.152344 L 0.109375 -0.199219 L -0.207031 -0.136719 C -0.222656 -0.222656 -0.230469 -0.308594 -0.230469 -0.394531 C -0.230469 -0.484375 -0.222656 -0.570312 -0.207031 -0.652344 L 0.109375 -0.59375 L -0.207031 -0.636719 C -0.195312 -0.742188 -0.167969 -0.828125 -0.132812 -0.894531 C -0.101562 -0.953125 -0.0625 -1 -0.0117188 -1.035156 C 0.0546875 -1.089844 0.132812 -1.113281 0.214844 -1.113281 L 0.535156 -1.113281 L 0.535156 -0.792969 Z M 0.855469 -0.46875 L 0.214844 -0.46875 C 0.273438 -0.46875 0.328125 -0.488281 0.375 -0.523438 C 0.402344 -0.542969 0.421875 -0.566406 0.433594 -0.589844 C 0.4375 -0.59375 0.4375 -0.597656 0.441406 -0.601562 C 0.441406 -0.601562 0.4375 -0.597656 0.4375 -0.597656 C 0.433594 -0.585938 0.433594 -0.570312 0.429688 -0.550781 L 0.429688 -0.542969 L 0.425781 -0.535156 C 0.417969 -0.488281 0.414062 -0.441406 0.414062 -0.394531 C 0.414062 -0.347656 0.417969 -0.300781 0.425781 -0.257812 L 0.429688 -0.25 L 0.429688 -0.242188 C 0.433594 -0.222656 0.433594 -0.207031 0.4375 -0.195312 C 0.4375 -0.191406 0.441406 -0.191406 0.441406 -0.191406 C 0.4375 -0.195312 0.4375 -0.199219 0.433594 -0.203125 C 0.421875 -0.226562 0.402344 -0.25 0.375 -0.269531 C 0.328125 -0.304688 0.273438 -0.320312 0.214844 -0.320312 L 1.765625 -0.320312 C 1.710938 -0.320312 1.65625 -0.304688 1.613281 -0.269531 C 1.585938 -0.25 1.566406 -0.230469 1.554688 -0.207031 C 1.550781 -0.203125 1.550781 -0.199219 1.546875 -0.195312 C 1.546875 -0.199219 1.550781 -0.199219 1.550781 -0.203125 C 1.554688 -0.214844 1.558594 -0.230469 1.558594 -0.25 L 1.5625 -0.253906 L 1.5625 -0.257812 C 1.570312 -0.300781 1.574219 -0.347656 1.574219 -0.394531 C 1.574219 -0.441406 1.570312 -0.488281 1.5625 -0.535156 L 1.5625 -0.539062 L 1.558594 -0.542969 C 1.558594 -0.5625 1.554688 -0.578125 1.550781 -0.589844 C 1.550781 -0.59375 1.546875 -0.59375 1.546875 -0.59375 C 1.550781 -0.59375 1.550781 -0.589844 1.554688 -0.585938 C 1.566406 -0.5625 1.585938 -0.539062 1.613281 -0.519531 C 1.65625 -0.488281 1.710938 -0.46875 1.765625 -0.46875 L 1.121094 -0.46875 L 1.121094 -2.753906 L 1.753906 -2.753906 C 1.695312 -2.753906 1.640625 -2.734375 1.59375 -2.699219 C 1.570312 -2.679688 1.546875 -2.65625 1.535156 -2.632812 C 1.53125 -2.628906 1.53125 -2.625 1.53125 -2.621094 C 1.53125 -2.621094 1.53125 -2.625 1.53125 -2.625 C 1.535156 -2.636719 1.539062 -2.652344 1.539062 -2.671875 L 1.542969 -2.679688 L 1.542969 -2.6875 C 1.550781 -2.734375 1.554688 -2.777344 1.554688 -2.824219 C 1.554688 -2.875 1.550781 -2.917969 1.542969 -2.964844 L 1.542969 -2.972656 L 1.539062 -2.980469 C 1.539062 -3 1.535156 -3.015625 1.53125 -3.027344 C 1.53125 -3.027344 1.53125 -3.03125 1.53125 -3.03125 C 1.53125 -3.027344 1.53125 -3.023438 1.535156 -3.019531 C 1.546875 -2.996094 1.570312 -2.972656 1.59375 -2.953125 C 1.640625 -2.917969 1.695312 -2.898438 1.753906 -2.898438 L 0.207031 -2.898438 C 0.265625 -2.898438 0.316406 -2.917969 0.363281 -2.949219 C 0.390625 -2.96875 0.410156 -2.992188 0.421875 -3.015625 C 0.425781 -3.019531 0.425781 -3.023438 0.425781 -3.023438 C 0.425781 -3.023438 0.425781 -3.023438 0.425781 -3.019531 C 0.421875 -3.007812 0.417969 -2.992188 0.414062 -2.976562 C 0.410156 -2.929688 0.40625 -2.878906 0.40625 -2.824219 C 0.40625 -2.773438 0.410156 -2.726562 0.414062 -2.679688 C 0.417969 -2.660156 0.421875 -2.644531 0.425781 -2.632812 C 0.425781 -2.628906 0.425781 -2.628906 0.425781 -2.628906 C 0.425781 -2.628906 0.425781 -2.632812 0.421875 -2.636719 C 0.410156 -2.660156 0.390625 -2.683594 0.363281 -2.703125 C 0.316406 -2.734375 0.265625 -2.753906 0.207031 -2.753906 L 0.855469 -2.753906 Z M 0.855469 -0.46875 "/></g></g><g style="fill:#ffffff;fill-opacity:1;"><g transform="translate(14.738429, 17.703357)"><path style="stroke:none" d="M 0.550781 -1.375 C 0.59375 -1.339844 0.679688 -1.285156 0.808594 -1.214844 C 0.902344 -1.164062 0.988281 -1.136719 1.0625 -1.136719 C 1.066406 -1.136719 1.070312 -1.136719 1.070312 -1.136719 C 1.070312 -1.136719 1.070312 -1.136719 1.066406 -1.136719 C 1.046875 -1.132812 1.027344 -1.121094 1.011719 -1.105469 C 0.984375 -1.085938 0.960938 -1.058594 0.949219 -1.027344 C 0.9375 -1.003906 0.933594 -0.984375 0.933594 -0.964844 C 0.933594 -0.941406 0.9375 -0.921875 0.949219 -0.898438 C 0.957031 -0.882812 0.96875 -0.867188 0.976562 -0.855469 C 0.972656 -0.859375 0.964844 -0.863281 0.957031 -0.871094 C 0.933594 -0.882812 0.902344 -0.902344 0.863281 -0.917969 C 0.757812 -0.96875 0.679688 -1.003906 0.625 -1.035156 C 0.5625 -1.066406 0.484375 -1.117188 0.390625 -1.1875 C 0.28125 -1.269531 0.191406 -1.359375 0.128906 -1.457031 L 0.394531 -1.632812 L 0.132812 -1.449219 C -0.03125 -1.679688 -0.109375 -1.964844 -0.109375 -2.300781 C -0.109375 -2.480469 -0.078125 -2.648438 -0.0078125 -2.804688 C 0.0625 -2.960938 0.160156 -3.097656 0.292969 -3.222656 C 0.558594 -3.464844 0.894531 -3.585938 1.300781 -3.585938 C 1.550781 -3.585938 1.78125 -3.558594 1.992188 -3.503906 C 2.332031 -3.417969 2.507812 -3.261719 2.527344 -3.03125 L 2.527344 -2.976562 C 2.527344 -2.828125 2.484375 -2.652344 2.402344 -2.449219 C 2.363281 -2.355469 2.332031 -2.285156 2.304688 -2.230469 C 2.253906 -2.136719 2.199219 -2.070312 2.140625 -2.027344 L 1.980469 -1.921875 L 1.8125 -2.011719 C 1.664062 -2.085938 1.535156 -2.125 1.433594 -2.125 C 1.421875 -2.125 1.410156 -2.125 1.40625 -2.125 C 1.417969 -2.128906 1.429688 -2.132812 1.445312 -2.144531 C 1.472656 -2.164062 1.492188 -2.1875 1.507812 -2.21875 C 1.519531 -2.242188 1.523438 -2.261719 1.523438 -2.28125 C 1.523438 -2.3125 1.519531 -2.339844 1.507812 -2.363281 C 1.5 -2.382812 1.488281 -2.398438 1.476562 -2.410156 C 1.476562 -2.410156 1.472656 -2.414062 1.472656 -2.414062 C 1.480469 -2.40625 1.492188 -2.402344 1.507812 -2.394531 L 1.511719 -2.394531 L 1.515625 -2.390625 C 1.539062 -2.378906 1.570312 -2.363281 1.613281 -2.34375 C 1.660156 -2.324219 1.714844 -2.296875 1.777344 -2.265625 C 1.847656 -2.230469 1.925781 -2.1875 2.003906 -2.136719 C 2.089844 -2.082031 2.179688 -2.011719 2.269531 -1.925781 C 2.503906 -1.707031 2.617188 -1.425781 2.617188 -1.082031 C 2.617188 -0.671875 2.503906 -0.335938 2.269531 -0.0664062 C 2.023438 0.214844 1.667969 0.359375 1.191406 0.367188 C 0.984375 0.367188 0.792969 0.351562 0.621094 0.316406 C 0.421875 0.273438 0.246094 0.191406 0.0976562 0.0703125 C 0.0078125 0 -0.0625 -0.0859375 -0.113281 -0.179688 C -0.164062 -0.28125 -0.1875 -0.386719 -0.1875 -0.5 C -0.1875 -0.664062 -0.160156 -0.828125 -0.101562 -0.988281 C -0.03125 -1.171875 0.0507812 -1.300781 0.152344 -1.378906 L 0.351562 -1.53125 Z M 0.148438 -0.871094 L 0.351562 -1.121094 L 0.546875 -0.867188 C 0.550781 -0.871094 0.554688 -0.875 0.558594 -0.878906 C 0.558594 -0.875 0.554688 -0.871094 0.550781 -0.867188 C 0.535156 -0.84375 0.519531 -0.808594 0.503906 -0.765625 C 0.472656 -0.675781 0.457031 -0.589844 0.457031 -0.5 C 0.457031 -0.492188 0.457031 -0.480469 0.460938 -0.472656 C 0.46875 -0.460938 0.480469 -0.445312 0.5 -0.429688 C 0.570312 -0.375 0.65625 -0.335938 0.753906 -0.316406 C 0.878906 -0.289062 1.023438 -0.277344 1.183594 -0.277344 C 1.464844 -0.28125 1.664062 -0.351562 1.78125 -0.488281 C 1.910156 -0.636719 1.972656 -0.832031 1.972656 -1.082031 C 1.972656 -1.242188 1.929688 -1.363281 1.835938 -1.453125 C 1.769531 -1.511719 1.707031 -1.5625 1.65625 -1.59375 C 1.597656 -1.632812 1.542969 -1.664062 1.496094 -1.6875 C 1.4375 -1.714844 1.386719 -1.738281 1.339844 -1.761719 C 1.292969 -1.785156 1.253906 -1.800781 1.226562 -1.816406 L 1.371094 -2.101562 L 1.238281 -1.8125 C 1.144531 -1.855469 1.066406 -1.90625 1.011719 -1.964844 C 0.921875 -2.058594 0.878906 -2.164062 0.878906 -2.28125 C 0.878906 -2.359375 0.894531 -2.429688 0.925781 -2.492188 C 0.957031 -2.5625 1.007812 -2.621094 1.074219 -2.667969 C 1.167969 -2.738281 1.289062 -2.769531 1.433594 -2.769531 C 1.640625 -2.769531 1.867188 -2.707031 2.109375 -2.582031 L 1.960938 -2.296875 L 1.78125 -2.566406 C 1.753906 -2.546875 1.734375 -2.527344 1.71875 -2.507812 C 1.722656 -2.507812 1.726562 -2.515625 1.730469 -2.527344 C 1.75 -2.566406 1.773438 -2.621094 1.804688 -2.691406 C 1.855469 -2.816406 1.882812 -2.914062 1.882812 -2.976562 L 1.882812 -3.003906 L 2.203125 -3.003906 L 1.882812 -2.980469 C 1.886719 -2.9375 1.902344 -2.902344 1.925781 -2.867188 C 1.933594 -2.855469 1.945312 -2.84375 1.953125 -2.839844 C 1.933594 -2.851562 1.894531 -2.863281 1.835938 -2.878906 C 1.675781 -2.921875 1.496094 -2.941406 1.300781 -2.941406 C 1.0625 -2.941406 0.871094 -2.875 0.730469 -2.75 C 0.664062 -2.6875 0.613281 -2.617188 0.582031 -2.542969 C 0.550781 -2.472656 0.535156 -2.390625 0.535156 -2.300781 C 0.535156 -2.097656 0.574219 -1.9375 0.660156 -1.820312 L 0.660156 -1.816406 L 0.664062 -1.8125 C 0.6875 -1.78125 0.722656 -1.746094 0.773438 -1.707031 C 0.84375 -1.65625 0.894531 -1.621094 0.929688 -1.601562 C 0.972656 -1.578125 1.042969 -1.546875 1.136719 -1.503906 C 1.265625 -1.441406 1.363281 -1.378906 1.425781 -1.320312 C 1.527344 -1.222656 1.578125 -1.105469 1.578125 -0.964844 C 1.578125 -0.898438 1.566406 -0.832031 1.539062 -0.773438 C 1.511719 -0.703125 1.464844 -0.644531 1.40625 -0.597656 C 1.316406 -0.527344 1.199219 -0.492188 1.0625 -0.492188 C 0.875 -0.492188 0.6875 -0.546875 0.492188 -0.652344 C 0.335938 -0.742188 0.222656 -0.8125 0.148438 -0.871094 Z M 0.148438 -0.871094 "/></g></g><g style="fill:#ffffff;fill-opacity:1;"><g transform="translate(17.182445, 17.703357)"><path style="stroke:none" d="M 2.394531 0.332031 C 2.230469 0.332031 2.09375 0.316406 1.992188 0.285156 C 1.917969 0.261719 1.855469 0.230469 1.800781 0.191406 C 1.722656 0.128906 1.671875 0.0507812 1.648438 -0.0429688 L 1.496094 -0.632812 L 1.808594 -0.714844 L 1.808594 -0.390625 L 1.078125 -0.390625 L 1.078125 -0.714844 L 1.390625 -0.640625 L 1.257812 -0.0703125 L 0.945312 -0.144531 L 1.261719 -0.0820312 C 1.242188 0.015625 1.191406 0.0976562 1.117188 0.164062 C 1.0625 0.210938 0.996094 0.246094 0.917969 0.269531 C 0.8125 0.304688 0.671875 0.320312 0.5 0.320312 C 0.328125 0.320312 0.195312 0.3125 0.101562 0.289062 C 0.0507812 0.277344 0.0117188 0.265625 -0.015625 0.253906 C -0.046875 0.242188 -0.0742188 0.230469 -0.0976562 0.214844 C -0.125 0.199219 -0.152344 0.175781 -0.171875 0.148438 C -0.226562 0.0898438 -0.253906 0.015625 -0.253906 -0.0625 L -0.253906 -0.105469 L 0.570312 -3.261719 L 0.882812 -3.179688 L 0.5625 -3.179688 C 0.5625 -3.238281 0.574219 -3.289062 0.601562 -3.339844 C 0.621094 -3.371094 0.644531 -3.402344 0.675781 -3.425781 C 0.703125 -3.453125 0.734375 -3.472656 0.773438 -3.488281 C 0.800781 -3.5 0.832031 -3.507812 0.867188 -3.515625 C 0.90625 -3.519531 0.957031 -3.527344 1.023438 -3.53125 C 1.132812 -3.535156 1.296875 -3.539062 1.515625 -3.539062 C 1.730469 -3.539062 1.894531 -3.535156 2.007812 -3.53125 C 2.070312 -3.527344 2.121094 -3.519531 2.160156 -3.515625 C 2.195312 -3.507812 2.230469 -3.5 2.257812 -3.488281 C 2.292969 -3.472656 2.324219 -3.453125 2.355469 -3.425781 C 2.382812 -3.402344 2.40625 -3.371094 2.425781 -3.339844 C 2.453125 -3.289062 2.46875 -3.238281 2.46875 -3.179688 L 2.144531 -3.179688 L 2.457031 -3.261719 L 3.261719 -0.101562 L 3.261719 -0.0585938 C 3.261719 0.0234375 3.234375 0.0976562 3.179688 0.160156 C 3.152344 0.191406 3.121094 0.21875 3.082031 0.238281 C 3.046875 0.257812 3.007812 0.269531 2.964844 0.28125 C 2.914062 0.292969 2.84375 0.304688 2.757812 0.3125 C 2.605469 0.324219 2.484375 0.332031 2.394531 0.332031 Z M 2.394531 -0.3125 C 2.46875 -0.3125 2.570312 -0.320312 2.703125 -0.332031 C 2.757812 -0.335938 2.792969 -0.339844 2.8125 -0.34375 C 2.804688 -0.34375 2.789062 -0.335938 2.773438 -0.328125 C 2.746094 -0.3125 2.71875 -0.289062 2.695312 -0.261719 C 2.644531 -0.207031 2.617188 -0.136719 2.617188 -0.0585938 L 2.941406 -0.0585938 L 2.628906 0.0195312 L 1.824219 -3.140625 L 1.824219 -3.179688 C 1.824219 -3.125 1.835938 -3.074219 1.863281 -3.027344 C 1.878906 -2.996094 1.902344 -2.964844 1.929688 -2.941406 C 1.957031 -2.921875 1.984375 -2.902344 2.011719 -2.890625 C 2.027344 -2.882812 2.039062 -2.882812 2.050781 -2.878906 C 2.035156 -2.882812 2.007812 -2.882812 1.96875 -2.886719 C 1.871094 -2.890625 1.71875 -2.894531 1.515625 -2.894531 C 1.308594 -2.894531 1.160156 -2.890625 1.058594 -2.886719 C 1.019531 -2.882812 0.992188 -2.882812 0.980469 -2.878906 C 0.988281 -2.882812 1 -2.882812 1.015625 -2.890625 C 1.046875 -2.902344 1.074219 -2.921875 1.097656 -2.941406 C 1.125 -2.964844 1.148438 -2.996094 1.167969 -3.027344 C 1.191406 -3.074219 1.207031 -3.125 1.207031 -3.179688 L 1.207031 -3.140625 L 0.378906 0.015625 L 0.0703125 -0.0625 L 0.390625 -0.0625 C 0.390625 -0.144531 0.367188 -0.210938 0.3125 -0.273438 C 0.292969 -0.292969 0.273438 -0.3125 0.246094 -0.328125 C 0.234375 -0.339844 0.21875 -0.34375 0.207031 -0.351562 C 0.210938 -0.347656 0.226562 -0.34375 0.25 -0.339844 C 0.296875 -0.328125 0.378906 -0.320312 0.5 -0.320312 C 0.605469 -0.320312 0.679688 -0.328125 0.71875 -0.34375 C 0.710938 -0.335938 0.703125 -0.332031 0.695312 -0.324219 C 0.660156 -0.292969 0.636719 -0.253906 0.628906 -0.203125 L 0.628906 -0.210938 L 0.820312 -1.035156 L 2.058594 -1.035156 L 2.273438 -0.199219 C 2.261719 -0.25 2.234375 -0.289062 2.199219 -0.316406 C 2.1875 -0.324219 2.179688 -0.328125 2.175781 -0.332031 C 2.171875 -0.332031 2.171875 -0.332031 2.171875 -0.332031 C 2.171875 -0.332031 2.175781 -0.332031 2.175781 -0.332031 C 2.21875 -0.320312 2.292969 -0.3125 2.394531 -0.3125 Z M 1.191406 -1.621094 L 1.675781 -1.621094 L 1.675781 -1.296875 L 1.359375 -1.230469 L 1.152344 -2.183594 L 1.46875 -2.25 L 1.46875 -1.929688 L 1.441406 -1.929688 L 1.441406 -2.25 L 1.753906 -2.167969 L 1.503906 -1.214844 L 1.191406 -1.296875 Z M 0.773438 -0.976562 L 1.191406 -2.574219 L 1.726562 -2.574219 L 2.074219 -0.976562 Z M 0.773438 -0.976562 "/></g></g><g style="fill:#ffffff;fill-opacity:1;"><g transform="translate(20.197197, 17.703357)"><path style="stroke:none" d="M 3.054688 -0.078125 C 3.054688 0.0078125 3.027344 0.0820312 2.972656 0.148438 C 2.9375 0.1875 2.898438 0.21875 2.851562 0.242188 C 2.800781 0.269531 2.742188 0.285156 2.671875 0.296875 C 2.574219 0.3125 2.441406 0.320312 2.269531 0.320312 C 2.097656 0.320312 1.960938 0.3125 1.867188 0.296875 C 1.796875 0.285156 1.738281 0.269531 1.6875 0.242188 C 1.640625 0.21875 1.597656 0.1875 1.566406 0.148438 C 1.511719 0.0820312 1.480469 0.0078125 1.480469 -0.078125 L 1.480469 -1.136719 L 1.804688 -1.136719 L 1.804688 -0.816406 L 1.160156 -0.816406 L 1.160156 -1.136719 L 1.480469 -1.136719 L 1.480469 -0.078125 C 1.480469 0.0078125 1.453125 0.0820312 1.398438 0.148438 C 1.367188 0.1875 1.324219 0.21875 1.277344 0.242188 C 1.226562 0.269531 1.167969 0.285156 1.097656 0.296875 C 1 0.3125 0.867188 0.320312 0.695312 0.320312 C 0.523438 0.320312 0.386719 0.3125 0.292969 0.296875 C 0.222656 0.285156 0.164062 0.269531 0.113281 0.242188 C 0.0664062 0.21875 0.0234375 0.1875 -0.0078125 0.148438 C -0.0625 0.0820312 -0.09375 0.0078125 -0.09375 -0.078125 L -0.09375 -3.128906 C -0.09375 -3.203125 -0.0703125 -3.273438 -0.0273438 -3.335938 C 0.00390625 -3.378906 0.0390625 -3.414062 0.0898438 -3.445312 C 0.140625 -3.476562 0.203125 -3.5 0.28125 -3.519531 C 0.378906 -3.539062 0.519531 -3.546875 0.695312 -3.546875 C 0.871094 -3.546875 1.011719 -3.539062 1.109375 -3.519531 C 1.183594 -3.5 1.25 -3.476562 1.300781 -3.445312 C 1.347656 -3.414062 1.386719 -3.378906 1.417969 -3.335938 C 1.460938 -3.273438 1.480469 -3.203125 1.480469 -3.128906 L 1.480469 -2.046875 L 1.160156 -2.046875 L 1.160156 -2.371094 L 1.804688 -2.371094 L 1.804688 -2.046875 L 1.480469 -2.046875 L 1.480469 -3.121094 C 1.480469 -3.175781 1.492188 -3.226562 1.515625 -3.277344 C 1.535156 -3.316406 1.5625 -3.351562 1.59375 -3.382812 C 1.636719 -3.421875 1.683594 -3.453125 1.742188 -3.476562 C 1.808594 -3.5 1.890625 -3.519531 1.996094 -3.53125 L 2.003906 -3.535156 L 2.007812 -3.535156 C 2.097656 -3.539062 2.183594 -3.542969 2.269531 -3.542969 L 2.277344 -3.542969 L 2.53125 -3.535156 L 2.542969 -3.53125 C 2.648438 -3.519531 2.730469 -3.5 2.796875 -3.476562 C 2.855469 -3.453125 2.902344 -3.421875 2.941406 -3.382812 C 2.976562 -3.351562 3 -3.316406 3.019531 -3.277344 C 3.042969 -3.226562 3.054688 -3.175781 3.054688 -3.121094 Z M 2.410156 -0.078125 L 2.410156 -3.121094 C 2.410156 -3.078125 2.421875 -3.035156 2.441406 -2.996094 C 2.453125 -2.964844 2.472656 -2.941406 2.496094 -2.917969 C 2.515625 -2.898438 2.539062 -2.882812 2.558594 -2.875 C 2.542969 -2.882812 2.515625 -2.886719 2.464844 -2.894531 L 2.503906 -3.210938 L 2.492188 -2.890625 L 2.257812 -2.898438 L 2.269531 -3.222656 L 2.269531 -2.898438 C 2.199219 -2.898438 2.128906 -2.898438 2.058594 -2.890625 L 2.035156 -3.210938 L 2.074219 -2.894531 C 2.023438 -2.886719 1.992188 -2.882812 1.980469 -2.875 C 2 -2.882812 2.019531 -2.898438 2.042969 -2.917969 C 2.066406 -2.941406 2.082031 -2.964844 2.097656 -2.996094 C 2.117188 -3.035156 2.125 -3.078125 2.125 -3.121094 L 2.125 -1.726562 L 0.835938 -1.726562 L 0.835938 -3.128906 C 0.835938 -3.070312 0.855469 -3.019531 0.886719 -2.96875 C 0.90625 -2.941406 0.933594 -2.917969 0.960938 -2.898438 C 0.972656 -2.890625 0.980469 -2.886719 0.988281 -2.882812 C 0.988281 -2.886719 0.984375 -2.886719 0.976562 -2.886719 C 0.921875 -2.898438 0.828125 -2.902344 0.695312 -2.902344 C 0.5625 -2.902344 0.46875 -2.898438 0.410156 -2.886719 C 0.40625 -2.886719 0.402344 -2.886719 0.402344 -2.882812 C 0.410156 -2.886719 0.417969 -2.890625 0.429688 -2.898438 C 0.457031 -2.917969 0.484375 -2.941406 0.503906 -2.96875 C 0.535156 -3.019531 0.550781 -3.070312 0.550781 -3.128906 L 0.550781 -0.078125 C 0.550781 -0.152344 0.527344 -0.214844 0.484375 -0.269531 C 0.460938 -0.296875 0.433594 -0.316406 0.40625 -0.332031 C 0.394531 -0.335938 0.386719 -0.339844 0.382812 -0.339844 C 0.386719 -0.339844 0.390625 -0.339844 0.398438 -0.335938 C 0.460938 -0.328125 0.558594 -0.320312 0.695312 -0.320312 C 0.832031 -0.320312 0.929688 -0.328125 0.988281 -0.335938 C 1 -0.339844 1.003906 -0.339844 1.007812 -0.339844 C 1 -0.339844 0.996094 -0.335938 0.984375 -0.332031 C 0.957031 -0.316406 0.929688 -0.296875 0.90625 -0.269531 C 0.859375 -0.214844 0.835938 -0.152344 0.835938 -0.078125 L 0.835938 -1.460938 L 2.125 -1.460938 L 2.125 -0.078125 C 2.125 -0.152344 2.101562 -0.214844 2.058594 -0.269531 C 2.035156 -0.296875 2.007812 -0.316406 1.976562 -0.332031 C 1.96875 -0.335938 1.960938 -0.339844 1.957031 -0.339844 C 1.960938 -0.339844 1.964844 -0.339844 1.972656 -0.335938 C 2.035156 -0.328125 2.132812 -0.320312 2.269531 -0.320312 C 2.40625 -0.320312 2.503906 -0.328125 2.5625 -0.335938 C 2.574219 -0.339844 2.578125 -0.339844 2.582031 -0.339844 C 2.574219 -0.339844 2.570312 -0.335938 2.558594 -0.332031 C 2.53125 -0.316406 2.503906 -0.296875 2.480469 -0.269531 C 2.433594 -0.214844 2.410156 -0.152344 2.410156 -0.078125 Z M 2.410156 -0.078125 "/></g></g><g style="fill:#ffffff;fill-opacity:1;"><g transform="translate(11.180748, 23.840207)"><path style="stroke:none" d="M 3.074219 -0.101562 C 3.074219 -0.03125 3.054688 0.0351562 3.015625 0.09375 C 2.988281 0.140625 2.949219 0.175781 2.90625 0.207031 C 2.851562 0.242188 2.789062 0.269531 2.714844 0.285156 C 2.621094 0.308594 2.488281 0.316406 2.320312 0.316406 C 2.160156 0.316406 2.03125 0.3125 1.9375 0.296875 C 1.875 0.289062 1.824219 0.273438 1.777344 0.257812 C 1.679688 0.21875 1.609375 0.160156 1.566406 0.078125 L 0.796875 -1.359375 L 1.082031 -1.507812 L 1.402344 -1.507812 L 1.402344 -0.078125 C 1.402344 0 1.378906 0.0703125 1.335938 0.132812 C 1.304688 0.171875 1.265625 0.207031 1.21875 0.234375 C 1.167969 0.265625 1.109375 0.285156 1.035156 0.300781 C 0.945312 0.316406 0.820312 0.328125 0.65625 0.328125 C 0.492188 0.328125 0.367188 0.316406 0.273438 0.300781 C 0.203125 0.285156 0.144531 0.265625 0.09375 0.234375 C 0.046875 0.207031 0.0078125 0.171875 -0.0234375 0.132812 C -0.0703125 0.0703125 -0.09375 0 -0.09375 -0.078125 L -0.09375 -3.15625 C -0.09375 -3.234375 -0.0703125 -3.304688 -0.0234375 -3.367188 C 0.0078125 -3.40625 0.046875 -3.441406 0.09375 -3.46875 C 0.140625 -3.492188 0.195312 -3.511719 0.261719 -3.527344 C 0.339844 -3.539062 0.453125 -3.546875 0.59375 -3.546875 C 0.703125 -3.546875 0.828125 -3.539062 0.96875 -3.519531 C 1.0625 -3.507812 1.136719 -3.488281 1.203125 -3.464844 C 1.308594 -3.421875 1.386719 -3.355469 1.4375 -3.273438 L 1.441406 -3.265625 L 2.183594 -1.835938 L 1.894531 -1.6875 L 1.574219 -1.6875 L 1.574219 -3.132812 C 1.574219 -3.210938 1.597656 -3.277344 1.640625 -3.339844 C 1.667969 -3.382812 1.707031 -3.417969 1.753906 -3.449219 C 1.804688 -3.476562 1.867188 -3.5 1.9375 -3.515625 C 2.03125 -3.535156 2.160156 -3.542969 2.324219 -3.542969 C 2.488281 -3.542969 2.617188 -3.535156 2.710938 -3.515625 C 2.78125 -3.5 2.84375 -3.476562 2.894531 -3.449219 C 2.941406 -3.417969 2.980469 -3.382812 3.007812 -3.339844 C 3.054688 -3.277344 3.074219 -3.210938 3.074219 -3.132812 Z M 2.429688 -0.101562 L 2.429688 -3.132812 C 2.429688 -3.074219 2.449219 -3.019531 2.480469 -2.96875 C 2.503906 -2.941406 2.527344 -2.914062 2.558594 -2.898438 C 2.570312 -2.890625 2.578125 -2.886719 2.589844 -2.882812 C 2.585938 -2.882812 2.582031 -2.882812 2.582031 -2.882812 C 2.53125 -2.894531 2.445312 -2.898438 2.324219 -2.898438 C 2.203125 -2.898438 2.117188 -2.894531 2.066406 -2.882812 C 2.066406 -2.882812 2.0625 -2.882812 2.058594 -2.882812 C 2.070312 -2.886719 2.078125 -2.890625 2.089844 -2.898438 C 2.121094 -2.914062 2.144531 -2.941406 2.167969 -2.96875 C 2.203125 -3.019531 2.21875 -3.074219 2.21875 -3.132812 L 2.21875 -1.6875 L 1.609375 -1.539062 L 0.875 -2.957031 L 1.160156 -3.105469 L 0.882812 -2.941406 C 0.898438 -2.914062 0.917969 -2.894531 0.9375 -2.878906 C 0.945312 -2.871094 0.953125 -2.867188 0.960938 -2.867188 C 0.945312 -2.871094 0.921875 -2.875 0.886719 -2.882812 C 0.773438 -2.898438 0.675781 -2.902344 0.59375 -2.902344 C 0.492188 -2.902344 0.421875 -2.902344 0.382812 -2.894531 C 0.378906 -2.890625 0.378906 -2.890625 0.375 -2.890625 C 0.375 -2.890625 0.378906 -2.890625 0.378906 -2.890625 C 0.390625 -2.894531 0.398438 -2.902344 0.414062 -2.90625 C 0.441406 -2.925781 0.46875 -2.949219 0.492188 -2.980469 C 0.53125 -3.03125 0.550781 -3.089844 0.550781 -3.15625 L 0.550781 -0.078125 C 0.550781 -0.140625 0.535156 -0.199219 0.496094 -0.25 C 0.472656 -0.28125 0.449219 -0.304688 0.417969 -0.320312 C 0.40625 -0.328125 0.398438 -0.332031 0.390625 -0.335938 C 0.390625 -0.332031 0.394531 -0.332031 0.398438 -0.332031 C 0.449219 -0.324219 0.535156 -0.316406 0.65625 -0.316406 C 0.777344 -0.316406 0.863281 -0.324219 0.914062 -0.332031 C 0.917969 -0.332031 0.921875 -0.332031 0.921875 -0.335938 C 0.914062 -0.332031 0.902344 -0.328125 0.890625 -0.320312 C 0.863281 -0.304688 0.835938 -0.28125 0.816406 -0.25 C 0.777344 -0.199219 0.757812 -0.140625 0.757812 -0.078125 L 0.757812 -1.507812 L 1.367188 -1.660156 L 2.132812 -0.226562 C 2.113281 -0.265625 2.085938 -0.296875 2.050781 -0.320312 C 2.035156 -0.332031 2.023438 -0.339844 2.007812 -0.34375 C 2.007812 -0.34375 2.003906 -0.347656 2.003906 -0.347656 C 2.003906 -0.347656 2.003906 -0.347656 2.007812 -0.34375 C 2.011719 -0.34375 2.023438 -0.34375 2.03125 -0.339844 C 2.09375 -0.332031 2.191406 -0.328125 2.320312 -0.328125 C 2.441406 -0.328125 2.523438 -0.332031 2.574219 -0.34375 C 2.578125 -0.34375 2.578125 -0.34375 2.582031 -0.34375 C 2.582031 -0.34375 2.582031 -0.34375 2.578125 -0.34375 C 2.570312 -0.339844 2.558594 -0.335938 2.546875 -0.328125 C 2.519531 -0.308594 2.492188 -0.28125 2.472656 -0.253906 C 2.445312 -0.207031 2.429688 -0.15625 2.429688 -0.101562 Z M 2.429688 -0.101562 "/></g></g><g style="fill:#ffffff;fill-opacity:1;"><g transform="translate(14.163281, 23.840207)"><path style="stroke:none" d="M 2.394531 0.332031 C 2.230469 0.332031 2.09375 0.316406 1.992188 0.285156 C 1.917969 0.261719 1.855469 0.230469 1.800781 0.191406 C 1.722656 0.128906 1.671875 0.0507812 1.648438 -0.0429688 L 1.496094 -0.632812 L 1.808594 -0.714844 L 1.808594 -0.390625 L 1.078125 -0.390625 L 1.078125 -0.714844 L 1.390625 -0.640625 L 1.257812 -0.0703125 L 0.945312 -0.144531 L 1.261719 -0.0820312 C 1.242188 0.015625 1.191406 0.0976562 1.117188 0.164062 C 1.0625 0.210938 0.996094 0.246094 0.917969 0.269531 C 0.8125 0.304688 0.671875 0.320312 0.5 0.320312 C 0.328125 0.320312 0.195312 0.3125 0.101562 0.289062 C 0.0507812 0.277344 0.0117188 0.265625 -0.015625 0.253906 C -0.046875 0.242188 -0.0742188 0.230469 -0.0976562 0.214844 C -0.125 0.199219 -0.152344 0.175781 -0.171875 0.148438 C -0.226562 0.0898438 -0.253906 0.015625 -0.253906 -0.0625 L -0.253906 -0.105469 L 0.570312 -3.261719 L 0.882812 -3.179688 L 0.5625 -3.179688 C 0.5625 -3.238281 0.574219 -3.289062 0.601562 -3.339844 C 0.621094 -3.371094 0.644531 -3.402344 0.675781 -3.425781 C 0.703125 -3.453125 0.734375 -3.472656 0.773438 -3.488281 C 0.800781 -3.5 0.832031 -3.507812 0.867188 -3.515625 C 0.90625 -3.519531 0.957031 -3.527344 1.023438 -3.53125 C 1.132812 -3.535156 1.296875 -3.539062 1.515625 -3.539062 C 1.730469 -3.539062 1.894531 -3.535156 2.007812 -3.53125 C 2.070312 -3.527344 2.121094 -3.519531 2.160156 -3.515625 C 2.195312 -3.507812 2.230469 -3.5 2.257812 -3.488281 C 2.292969 -3.472656 2.324219 -3.453125 2.355469 -3.425781 C 2.382812 -3.402344 2.40625 -3.371094 2.425781 -3.339844 C 2.453125 -3.289062 2.46875 -3.238281 2.46875 -3.179688 L 2.144531 -3.179688 L 2.457031 -3.261719 L 3.261719 -0.101562 L 3.261719 -0.0585938 C 3.261719 0.0234375 3.234375 0.0976562 3.179688 0.160156 C 3.152344 0.191406 3.121094 0.21875 3.082031 0.238281 C 3.046875 0.257812 3.007812 0.269531 2.964844 0.28125 C 2.914062 0.292969 2.84375 0.304688 2.757812 0.3125 C 2.605469 0.324219 2.484375 0.332031 2.394531 0.332031 Z M 2.394531 -0.3125 C 2.46875 -0.3125 2.570312 -0.320312 2.703125 -0.332031 C 2.757812 -0.335938 2.792969 -0.339844 2.8125 -0.34375 C 2.804688 -0.34375 2.789062 -0.335938 2.773438 -0.328125 C 2.746094 -0.3125 2.71875 -0.289062 2.695312 -0.261719 C 2.644531 -0.207031 2.617188 -0.136719 2.617188 -0.0585938 L 2.941406 -0.0585938 L 2.628906 0.0195312 L 1.824219 -3.140625 L 1.824219 -3.179688 C 1.824219 -3.125 1.835938 -3.074219 1.863281 -3.027344 C 1.878906 -2.996094 1.902344 -2.964844 1.929688 -2.941406 C 1.957031 -2.921875 1.984375 -2.902344 2.011719 -2.890625 C 2.027344 -2.882812 2.039062 -2.882812 2.050781 -2.878906 C 2.035156 -2.882812 2.007812 -2.882812 1.96875 -2.886719 C 1.871094 -2.890625 1.71875 -2.894531 1.515625 -2.894531 C 1.308594 -2.894531 1.160156 -2.890625 1.058594 -2.886719 C 1.019531 -2.882812 0.992188 -2.882812 0.980469 -2.878906 C 0.988281 -2.882812 1 -2.882812 1.015625 -2.890625 C 1.046875 -2.902344 1.074219 -2.921875 1.097656 -2.941406 C 1.125 -2.964844 1.148438 -2.996094 1.167969 -3.027344 C 1.191406 -3.074219 1.207031 -3.125 1.207031 -3.179688 L 1.207031 -3.140625 L 0.378906 0.015625 L 0.0703125 -0.0625 L 0.390625 -0.0625 C 0.390625 -0.144531 0.367188 -0.210938 0.3125 -0.273438 C 0.292969 -0.292969 0.273438 -0.3125 0.246094 -0.328125 C 0.234375 -0.339844 0.21875 -0.34375 0.207031 -0.351562 C 0.210938 -0.347656 0.226562 -0.34375 0.25 -0.339844 C 0.296875 -0.328125 0.378906 -0.320312 0.5 -0.320312 C 0.605469 -0.320312 0.679688 -0.328125 0.71875 -0.34375 C 0.710938 -0.335938 0.703125 -0.332031 0.695312 -0.324219 C 0.660156 -0.292969 0.636719 -0.253906 0.628906 -0.203125 L 0.628906 -0.210938 L 0.820312 -1.035156 L 2.058594 -1.035156 L 2.273438 -0.199219 C 2.261719 -0.25 2.234375 -0.289062 2.199219 -0.316406 C 2.1875 -0.324219 2.179688 -0.328125 2.175781 -0.332031 C 2.171875 -0.332031 2.171875 -0.332031 2.171875 -0.332031 C 2.171875 -0.332031 2.175781 -0.332031 2.175781 -0.332031 C 2.21875 -0.320312 2.292969 -0.3125 2.394531 -0.3125 Z M 1.191406 -1.621094 L 1.675781 -1.621094 L 1.675781 -1.296875 L 1.359375 -1.230469 L 1.152344 -2.183594 L 1.46875 -2.25 L 1.46875 -1.929688 L 1.441406 -1.929688 L 1.441406 -2.25 L 1.753906 -2.167969 L 1.503906 -1.214844 L 1.191406 -1.296875 Z M 0.773438 -0.976562 L 1.191406 -2.574219 L 1.726562 -2.574219 L 2.074219 -0.976562 Z M 0.773438 -0.976562 "/></g></g><g style="fill:#ffffff;fill-opacity:1;"><g transform="translate(17.178033, 23.840207)"><path style="stroke:none" d="M 2.8125 -2.390625 C 2.8125 -2.171875 2.761719 -1.980469 2.667969 -1.808594 C 2.570312 -1.636719 2.429688 -1.496094 2.242188 -1.386719 L 2.074219 -1.660156 L 2.1875 -1.964844 C 2.398438 -1.886719 2.570312 -1.753906 2.710938 -1.570312 C 2.855469 -1.378906 2.925781 -1.121094 2.925781 -0.804688 C 2.925781 -0.632812 2.894531 -0.476562 2.828125 -0.335938 C 2.761719 -0.191406 2.664062 -0.0664062 2.53125 0.0351562 C 2.289062 0.226562 1.960938 0.320312 1.546875 0.320312 L 0.460938 0.320312 C 0.316406 0.320312 0.195312 0.269531 0.0976562 0.167969 C 0.00390625 0.0703125 -0.0429688 -0.046875 -0.0429688 -0.191406 L -0.0429688 -3.140625 C -0.0429688 -3.261719 -0.00390625 -3.359375 0.0703125 -3.433594 C 0.144531 -3.507812 0.242188 -3.542969 0.363281 -3.542969 L 1.414062 -3.542969 C 1.84375 -3.542969 2.179688 -3.453125 2.417969 -3.269531 C 2.550781 -3.164062 2.652344 -3.035156 2.71875 -2.878906 C 2.78125 -2.734375 2.8125 -2.570312 2.8125 -2.390625 Z M 2.167969 -2.390625 C 2.167969 -2.484375 2.152344 -2.5625 2.125 -2.625 C 2.105469 -2.679688 2.070312 -2.722656 2.023438 -2.757812 C 1.902344 -2.851562 1.699219 -2.898438 1.414062 -2.898438 L 0.363281 -2.898438 C 0.371094 -2.898438 0.382812 -2.902344 0.398438 -2.90625 C 0.445312 -2.917969 0.488281 -2.941406 0.523438 -2.976562 C 0.5625 -3.015625 0.585938 -3.058594 0.597656 -3.105469 C 0.601562 -3.117188 0.601562 -3.128906 0.601562 -3.140625 L 0.601562 -0.191406 C 0.601562 -0.203125 0.601562 -0.210938 0.597656 -0.222656 C 0.589844 -0.242188 0.578125 -0.261719 0.5625 -0.277344 C 0.550781 -0.289062 0.53125 -0.304688 0.511719 -0.3125 C 0.492188 -0.320312 0.476562 -0.320312 0.460938 -0.320312 L 1.546875 -0.320312 C 1.8125 -0.320312 2.007812 -0.371094 2.132812 -0.46875 C 2.183594 -0.507812 2.21875 -0.554688 2.246094 -0.609375 C 2.269531 -0.660156 2.28125 -0.726562 2.28125 -0.804688 C 2.28125 -0.980469 2.253906 -1.105469 2.195312 -1.183594 C 2.132812 -1.265625 2.054688 -1.324219 1.964844 -1.359375 L 1.332031 -1.589844 L 1.910156 -1.9375 C 2 -1.992188 2.066406 -2.054688 2.105469 -2.128906 C 2.148438 -2.199219 2.167969 -2.285156 2.167969 -2.390625 Z M 1.488281 -2.476562 L 1.488281 -1.875 L 1.164062 -1.875 L 1.164062 -2.195312 L 1.1875 -2.195312 C 1.238281 -2.195312 1.277344 -2.199219 1.3125 -2.207031 C 1.328125 -2.210938 1.335938 -2.210938 1.339844 -2.214844 C 1.328125 -2.207031 1.320312 -2.195312 1.3125 -2.183594 C 1.3125 -2.175781 1.308594 -2.171875 1.308594 -2.167969 C 1.308594 -2.164062 1.308594 -2.164062 1.308594 -2.164062 C 1.308594 -2.164062 1.308594 -2.167969 1.308594 -2.167969 C 1.308594 -2.183594 1.304688 -2.195312 1.304688 -2.195312 C 1.308594 -2.183594 1.320312 -2.171875 1.332031 -2.160156 C 1.339844 -2.152344 1.347656 -2.148438 1.351562 -2.144531 C 1.355469 -2.144531 1.355469 -2.144531 1.355469 -2.144531 C 1.355469 -2.144531 1.351562 -2.144531 1.351562 -2.144531 C 1.328125 -2.152344 1.300781 -2.152344 1.261719 -2.152344 L 1.164062 -2.152344 L 1.164062 -2.476562 Z M 0.84375 -2.796875 L 1.261719 -2.796875 C 1.472656 -2.796875 1.636719 -2.746094 1.753906 -2.644531 C 1.886719 -2.53125 1.953125 -2.375 1.953125 -2.167969 C 1.953125 -2.066406 1.929688 -1.976562 1.890625 -1.894531 C 1.847656 -1.808594 1.78125 -1.734375 1.699219 -1.679688 C 1.570312 -1.59375 1.398438 -1.550781 1.1875 -1.550781 L 0.84375 -1.550781 Z M 1.488281 -1.332031 L 1.488281 -0.730469 L 1.164062 -0.730469 L 1.164062 -1.054688 L 1.246094 -1.054688 C 1.285156 -1.054688 1.316406 -1.058594 1.339844 -1.0625 C 1.34375 -1.0625 1.347656 -1.066406 1.347656 -1.066406 C 1.34375 -1.0625 1.339844 -1.0625 1.335938 -1.058594 C 1.320312 -1.046875 1.3125 -1.03125 1.304688 -1.019531 C 1.308594 -1.023438 1.308594 -1.03125 1.308594 -1.039062 C 1.308594 -1.050781 1.308594 -1.058594 1.304688 -1.066406 C 1.304688 -1.066406 1.304688 -1.066406 1.304688 -1.0625 C 1.3125 -1.042969 1.328125 -1.023438 1.351562 -1.007812 C 1.355469 -1.003906 1.363281 -1 1.367188 -0.996094 C 1.367188 -0.996094 1.363281 -1 1.359375 -1 C 1.335938 -1.003906 1.304688 -1.007812 1.261719 -1.007812 L 1.164062 -1.007812 L 1.164062 -1.332031 Z M 0.84375 -1.652344 L 1.261719 -1.652344 C 1.464844 -1.652344 1.625 -1.609375 1.738281 -1.523438 C 1.816406 -1.464844 1.875 -1.386719 1.910156 -1.289062 C 1.9375 -1.214844 1.953125 -1.132812 1.953125 -1.039062 C 1.953125 -0.945312 1.9375 -0.859375 1.90625 -0.785156 C 1.871094 -0.691406 1.8125 -0.613281 1.738281 -0.554688 C 1.617188 -0.457031 1.453125 -0.410156 1.246094 -0.410156 L 0.84375 -0.410156 Z M 0.84375 -1.652344 "/></g></g><g style="fill:#ffffff;fill-opacity:1;"><g transform="translate(19.912019, 23.840207)"><path style="stroke:none" d="M 0.210938 -0.792969 L 0.210938 -2.429688 L 0.535156 -2.429688 L 0.535156 -2.109375 L 0.207031 -2.109375 C 0.125 -2.109375 0.046875 -2.132812 -0.0195312 -2.183594 C -0.0703125 -2.21875 -0.109375 -2.265625 -0.140625 -2.324219 C -0.179688 -2.386719 -0.203125 -2.472656 -0.222656 -2.578125 C -0.234375 -2.660156 -0.238281 -2.742188 -0.238281 -2.824219 C -0.238281 -2.910156 -0.234375 -2.988281 -0.222656 -3.070312 C -0.203125 -3.175781 -0.179688 -3.261719 -0.140625 -3.328125 C -0.109375 -3.386719 -0.0703125 -3.433594 -0.0195312 -3.46875 C 0.046875 -3.519531 0.125 -3.542969 0.207031 -3.542969 L 1.753906 -3.542969 C 1.839844 -3.542969 1.914062 -3.519531 1.984375 -3.464844 C 2.03125 -3.429688 2.070312 -3.382812 2.101562 -3.324219 C 2.140625 -3.257812 2.164062 -3.171875 2.179688 -3.070312 L 1.859375 -3.023438 L 2.175781 -3.085938 C 2.191406 -3 2.199219 -2.914062 2.199219 -2.824219 C 2.199219 -2.738281 2.191406 -2.652344 2.175781 -2.566406 L 1.859375 -2.628906 L 2.179688 -2.582031 C 2.164062 -2.480469 2.140625 -2.394531 2.101562 -2.328125 C 2.070312 -2.269531 2.03125 -2.222656 1.984375 -2.183594 C 1.914062 -2.132812 1.839844 -2.109375 1.753906 -2.109375 L 1.445312 -2.109375 L 1.445312 -2.429688 L 1.765625 -2.429688 L 1.765625 -0.792969 L 1.445312 -0.792969 L 1.445312 -1.113281 L 1.765625 -1.113281 C 1.851562 -1.113281 1.925781 -1.089844 1.996094 -1.039062 C 2.042969 -1.003906 2.082031 -0.957031 2.117188 -0.898438 C 2.152344 -0.832031 2.179688 -0.75 2.195312 -0.644531 L 1.878906 -0.59375 L 2.195312 -0.652344 C 2.210938 -0.570312 2.21875 -0.484375 2.21875 -0.394531 C 2.21875 -0.308594 2.210938 -0.222656 2.195312 -0.136719 L 1.878906 -0.199219 L 2.195312 -0.144531 C 2.179688 -0.0429688 2.152344 0.0429688 2.117188 0.109375 C 2.082031 0.164062 2.042969 0.210938 1.996094 0.246094 C 1.925781 0.296875 1.851562 0.320312 1.765625 0.320312 L 0.214844 0.320312 C 0.132812 0.320312 0.0546875 0.296875 -0.0117188 0.246094 C -0.0625 0.207031 -0.101562 0.160156 -0.132812 0.101562 C -0.167969 0.0351562 -0.195312 -0.0507812 -0.207031 -0.152344 L 0.109375 -0.199219 L -0.207031 -0.136719 C -0.222656 -0.222656 -0.230469 -0.308594 -0.230469 -0.394531 C -0.230469 -0.484375 -0.222656 -0.570312 -0.207031 -0.652344 L 0.109375 -0.59375 L -0.207031 -0.636719 C -0.195312 -0.742188 -0.167969 -0.828125 -0.132812 -0.894531 C -0.101562 -0.953125 -0.0625 -1 -0.0117188 -1.035156 C 0.0546875 -1.089844 0.132812 -1.113281 0.214844 -1.113281 L 0.535156 -1.113281 L 0.535156 -0.792969 Z M 0.855469 -0.46875 L 0.214844 -0.46875 C 0.273438 -0.46875 0.328125 -0.488281 0.375 -0.523438 C 0.402344 -0.542969 0.421875 -0.566406 0.433594 -0.589844 C 0.4375 -0.59375 0.4375 -0.597656 0.441406 -0.601562 C 0.441406 -0.601562 0.4375 -0.597656 0.4375 -0.597656 C 0.433594 -0.585938 0.433594 -0.570312 0.429688 -0.550781 L 0.429688 -0.542969 L 0.425781 -0.535156 C 0.417969 -0.488281 0.414062 -0.441406 0.414062 -0.394531 C 0.414062 -0.347656 0.417969 -0.300781 0.425781 -0.257812 L 0.429688 -0.25 L 0.429688 -0.242188 C 0.433594 -0.222656 0.433594 -0.207031 0.4375 -0.195312 C 0.4375 -0.191406 0.441406 -0.191406 0.441406 -0.191406 C 0.4375 -0.195312 0.4375 -0.199219 0.433594 -0.203125 C 0.421875 -0.226562 0.402344 -0.25 0.375 -0.269531 C 0.328125 -0.304688 0.273438 -0.320312 0.214844 -0.320312 L 1.765625 -0.320312 C 1.710938 -0.320312 1.65625 -0.304688 1.613281 -0.269531 C 1.585938 -0.25 1.566406 -0.230469 1.554688 -0.207031 C 1.550781 -0.203125 1.550781 -0.199219 1.546875 -0.195312 C 1.546875 -0.199219 1.550781 -0.199219 1.550781 -0.203125 C 1.554688 -0.214844 1.558594 -0.230469 1.558594 -0.25 L 1.5625 -0.253906 L 1.5625 -0.257812 C 1.570312 -0.300781 1.574219 -0.347656 1.574219 -0.394531 C 1.574219 -0.441406 1.570312 -0.488281 1.5625 -0.535156 L 1.5625 -0.539062 L 1.558594 -0.542969 C 1.558594 -0.5625 1.554688 -0.578125 1.550781 -0.589844 C 1.550781 -0.59375 1.546875 -0.59375 1.546875 -0.59375 C 1.550781 -0.59375 1.550781 -0.589844 1.554688 -0.585938 C 1.566406 -0.5625 1.585938 -0.539062 1.613281 -0.519531 C 1.65625 -0.488281 1.710938 -0.46875 1.765625 -0.46875 L 1.121094 -0.46875 L 1.121094 -2.753906 L 1.753906 -2.753906 C 1.695312 -2.753906 1.640625 -2.734375 1.59375 -2.699219 C 1.570312 -2.679688 1.546875 -2.65625 1.535156 -2.632812 C 1.53125 -2.628906 1.53125 -2.625 1.53125 -2.621094 C 1.53125 -2.621094 1.53125 -2.625 1.53125 -2.625 C 1.535156 -2.636719 1.539062 -2.652344 1.539062 -2.671875 L 1.542969 -2.679688 L 1.542969 -2.6875 C 1.550781 -2.734375 1.554688 -2.777344 1.554688 -2.824219 C 1.554688 -2.875 1.550781 -2.917969 1.542969 -2.964844 L 1.542969 -2.972656 L 1.539062 -2.980469 C 1.539062 -3 1.535156 -3.015625 1.53125 -3.027344 C 1.53125 -3.027344 1.53125 -3.03125 1.53125 -3.03125 C 1.53125 -3.027344 1.53125 -3.023438 1.535156 -3.019531 C 1.546875 -2.996094 1.570312 -2.972656 1.59375 -2.953125 C 1.640625 -2.917969 1.695312 -2.898438 1.753906 -2.898438 L 0.207031 -2.898438 C 0.265625 -2.898438 0.316406 -2.917969 0.363281 -2.949219 C 0.390625 -2.96875 0.410156 -2.992188 0.421875 -3.015625 C 0.425781 -3.019531 0.425781 -3.023438 0.425781 -3.023438 C 0.425781 -3.023438 0.425781 -3.023438 0.425781 -3.019531 C 0.421875 -3.007812 0.417969 -2.992188 0.414062 -2.976562 C 0.410156 -2.929688 0.40625 -2.878906 0.40625 -2.824219 C 0.40625 -2.773438 0.410156 -2.726562 0.414062 -2.679688 C 0.417969 -2.660156 0.421875 -2.644531 0.425781 -2.632812 C 0.425781 -2.628906 0.425781 -2.628906 0.425781 -2.628906 C 0.425781 -2.628906 0.425781 -2.632812 0.421875 -2.636719 C 0.410156 -2.660156 0.390625 -2.683594 0.363281 -2.703125 C 0.316406 -2.734375 0.265625 -2.753906 0.207031 -2.753906 L 0.855469 -2.753906 Z M 0.855469 -0.46875 "/></g></g><g style="fill:#000000;fill-opacity:1;"><g transform="translate(9.910228, 17.703357)"><path style="stroke:none" d="M 1.15625 -0.0625 C 1.15625 -0.0195312 1.007812 0 0.71875 0 L 0.453125 -0.015625 C 0.304688 -0.0234375 0.234375 -0.046875 0.234375 -0.078125 L 0.234375 -3.171875 C 0.234375 -3.222656 0.382812 -3.25 0.6875 -3.25 C 1 -3.25 1.15625 -3.222656 1.15625 -3.171875 L 1.15625 -1.984375 L 1.71875 -3.171875 C 1.738281 -3.210938 1.859375 -3.234375 2.078125 -3.234375 C 2.492188 -3.234375 2.710938 -3.195312 2.734375 -3.125 C 2.734375 -3.113281 2.726562 -3.109375 2.71875 -3.109375 L 1.921875 -1.65625 L 2.859375 -0.375 C 2.859375 -0.363281 2.828125 -0.335938 2.765625 -0.296875 C 2.617188 -0.171875 2.453125 -0.0703125 2.265625 0 C 2.210938 0.0195312 2.15625 0.03125 2.09375 0.03125 L 1.984375 0.015625 C 1.878906 -0.00390625 1.800781 -0.0664062 1.75 -0.171875 L 1.21875 -1.171875 L 1.15625 -1.171875 Z M 1.15625 -0.0625 "/></g></g><g style="fill:#000000;fill-opacity:1;"><g transform="translate(12.763882, 17.703357)"><path style="stroke:none" d="M 0.53125 -0.796875 L 0.53125 -2.4375 L 0.203125 -2.4375 C 0.148438 -2.4375 0.113281 -2.5 0.09375 -2.625 C 0.0820312 -2.695312 0.078125 -2.765625 0.078125 -2.828125 C 0.078125 -2.898438 0.0820312 -2.96875 0.09375 -3.03125 C 0.113281 -3.15625 0.148438 -3.21875 0.203125 -3.21875 L 1.75 -3.21875 C 1.800781 -3.21875 1.835938 -3.15625 1.859375 -3.03125 C 1.867188 -2.96875 1.875 -2.898438 1.875 -2.828125 C 1.875 -2.765625 1.867188 -2.695312 1.859375 -2.625 C 1.835938 -2.5 1.800781 -2.4375 1.75 -2.4375 L 1.453125 -2.4375 L 1.453125 -0.796875 L 1.765625 -0.796875 C 1.816406 -0.796875 1.851562 -0.726562 1.875 -0.59375 C 1.894531 -0.53125 1.90625 -0.460938 1.90625 -0.390625 C 1.90625 -0.328125 1.894531 -0.265625 1.875 -0.203125 C 1.851562 -0.0664062 1.816406 0 1.765625 0 L 0.21875 0 C 0.164062 0 0.128906 -0.0664062 0.109375 -0.203125 C 0.0976562 -0.265625 0.09375 -0.328125 0.09375 -0.390625 C 0.09375 -0.460938 0.0976562 -0.53125 0.109375 -0.59375 C 0.128906 -0.726562 0.164062 -0.796875 0.21875 -0.796875 Z M 0.53125 -0.796875 "/></g></g><g style="fill:#000000;fill-opacity:1;"><g transform="translate(14.738429, 17.703357)"><path style="stroke:none" d="M 0.34375 -1.125 C 0.40625 -1.082031 0.503906 -1.019531 0.640625 -0.9375 C 0.785156 -0.851562 0.925781 -0.8125 1.0625 -0.8125 C 1.195312 -0.8125 1.265625 -0.863281 1.265625 -0.96875 C 1.265625 -1.007812 1.242188 -1.046875 1.203125 -1.078125 C 1.160156 -1.117188 1.09375 -1.160156 1 -1.203125 C 0.90625 -1.253906 0.832031 -1.289062 0.78125 -1.3125 C 0.726562 -1.34375 0.660156 -1.390625 0.578125 -1.453125 C 0.492188 -1.515625 0.429688 -1.578125 0.390625 -1.640625 C 0.273438 -1.816406 0.21875 -2.035156 0.21875 -2.296875 C 0.21875 -2.566406 0.316406 -2.796875 0.515625 -2.984375 C 0.710938 -3.171875 0.972656 -3.265625 1.296875 -3.265625 C 1.523438 -3.265625 1.734375 -3.238281 1.921875 -3.1875 C 2.109375 -3.144531 2.203125 -3.085938 2.203125 -3.015625 C 2.203125 -3.003906 2.203125 -2.992188 2.203125 -2.984375 C 2.203125 -2.878906 2.164062 -2.742188 2.09375 -2.578125 C 2.03125 -2.410156 1.988281 -2.316406 1.96875 -2.296875 C 1.769531 -2.398438 1.59375 -2.453125 1.4375 -2.453125 C 1.28125 -2.453125 1.203125 -2.394531 1.203125 -2.28125 C 1.203125 -2.21875 1.257812 -2.160156 1.375 -2.109375 C 1.394531 -2.097656 1.425781 -2.082031 1.46875 -2.0625 C 1.519531 -2.039062 1.578125 -2.015625 1.640625 -1.984375 C 1.703125 -1.953125 1.765625 -1.910156 1.828125 -1.859375 C 1.898438 -1.816406 1.976562 -1.757812 2.0625 -1.6875 C 2.21875 -1.539062 2.296875 -1.335938 2.296875 -1.078125 C 2.296875 -0.753906 2.203125 -0.488281 2.015625 -0.28125 C 1.835938 -0.0703125 1.5625 0.0351562 1.1875 0.046875 C 1 0.046875 0.832031 0.03125 0.6875 0 C 0.539062 -0.03125 0.410156 -0.0859375 0.296875 -0.171875 C 0.191406 -0.265625 0.140625 -0.375 0.140625 -0.5 C 0.140625 -0.625 0.160156 -0.75 0.203125 -0.875 C 0.242188 -1 0.289062 -1.082031 0.34375 -1.125 Z M 0.34375 -1.125 "/></g></g><g style="fill:#000000;fill-opacity:1;"><g transform="translate(17.182445, 17.703357)"><path style="stroke:none" d="M 2.390625 0.015625 C 2.128906 0.015625 1.988281 -0.03125 1.96875 -0.125 L 1.8125 -0.71875 L 1.078125 -0.71875 L 0.9375 -0.140625 C 0.925781 -0.046875 0.78125 0 0.5 0 C 0.351562 0 0.242188 -0.00390625 0.171875 -0.015625 C 0.0976562 -0.0351562 0.0625 -0.0507812 0.0625 -0.0625 L 0.890625 -3.1875 C 0.890625 -3.207031 1.097656 -3.21875 1.515625 -3.21875 C 1.929688 -3.21875 2.140625 -3.207031 2.140625 -3.1875 L 2.953125 -0.0625 C 2.953125 -0.0390625 2.878906 -0.0195312 2.734375 0 C 2.585938 0.0078125 2.472656 0.015625 2.390625 0.015625 Z M 1.1875 -1.296875 L 1.671875 -1.296875 L 1.46875 -2.25 L 1.4375 -2.25 Z M 1.1875 -1.296875 "/></g></g><g style="fill:#000000;fill-opacity:1;"><g transform="translate(20.197197, 17.703357)"><path style="stroke:none" d="M 2.734375 -0.078125 C 2.734375 -0.0234375 2.578125 0 2.265625 0 C 1.960938 0 1.8125 -0.0234375 1.8125 -0.078125 L 1.8125 -1.140625 L 1.15625 -1.140625 L 1.15625 -0.078125 C 1.15625 -0.0234375 1 0 0.6875 0 C 0.382812 0 0.234375 -0.0234375 0.234375 -0.078125 L 0.234375 -3.140625 C 0.234375 -3.203125 0.382812 -3.234375 0.6875 -3.234375 C 1 -3.234375 1.15625 -3.203125 1.15625 -3.140625 L 1.15625 -2.046875 L 1.8125 -2.046875 L 1.8125 -3.125 C 1.8125 -3.164062 1.882812 -3.195312 2.03125 -3.21875 C 2.113281 -3.21875 2.191406 -3.21875 2.265625 -3.21875 L 2.5 -3.21875 C 2.65625 -3.195312 2.734375 -3.164062 2.734375 -3.125 Z M 2.734375 -0.078125 "/></g></g><g style="fill:#000000;fill-opacity:1;"><g transform="translate(11.180748, 23.840207)"><path style="stroke:none" d="M 2.75 -0.09375 C 2.75 -0.03125 2.601562 0 2.3125 0 C 2.03125 0 1.878906 -0.0234375 1.859375 -0.078125 L 1.078125 -1.515625 L 1.078125 -0.078125 C 1.078125 -0.0234375 0.9375 0 0.65625 0 C 0.375 0 0.234375 -0.0234375 0.234375 -0.078125 L 0.234375 -3.15625 C 0.234375 -3.207031 0.351562 -3.234375 0.59375 -3.234375 C 0.6875 -3.234375 0.796875 -3.222656 0.921875 -3.203125 C 1.054688 -3.191406 1.132812 -3.160156 1.15625 -3.109375 L 1.90625 -1.6875 L 1.90625 -3.140625 C 1.90625 -3.191406 2.046875 -3.21875 2.328125 -3.21875 C 2.609375 -3.21875 2.75 -3.191406 2.75 -3.140625 Z M 2.75 -0.09375 "/></g></g><g style="fill:#000000;fill-opacity:1;"><g transform="translate(14.163281, 23.840207)"><path style="stroke:none" d="M 2.390625 0.015625 C 2.128906 0.015625 1.988281 -0.03125 1.96875 -0.125 L 1.8125 -0.71875 L 1.078125 -0.71875 L 0.9375 -0.140625 C 0.925781 -0.046875 0.78125 0 0.5 0 C 0.351562 0 0.242188 -0.00390625 0.171875 -0.015625 C 0.0976562 -0.0351562 0.0625 -0.0507812 0.0625 -0.0625 L 0.890625 -3.1875 C 0.890625 -3.207031 1.097656 -3.21875 1.515625 -3.21875 C 1.929688 -3.21875 2.140625 -3.207031 2.140625 -3.1875 L 2.953125 -0.0625 C 2.953125 -0.0390625 2.878906 -0.0195312 2.734375 0 C 2.585938 0.0078125 2.472656 0.015625 2.390625 0.015625 Z M 1.1875 -1.296875 L 1.671875 -1.296875 L 1.46875 -2.25 L 1.4375 -2.25 Z M 1.1875 -1.296875 "/></g></g><g style="fill:#000000;fill-opacity:1;"><g transform="translate(17.178033, 23.840207)"><path style="stroke:none" d="M 2.5 -2.390625 C 2.5 -2.066406 2.359375 -1.820312 2.078125 -1.65625 C 2.222656 -1.601562 2.347656 -1.507812 2.453125 -1.375 C 2.554688 -1.238281 2.609375 -1.046875 2.609375 -0.796875 C 2.609375 -0.554688 2.515625 -0.363281 2.328125 -0.21875 C 2.148438 -0.0703125 1.890625 0 1.546875 0 L 0.453125 0 C 0.398438 0 0.359375 -0.015625 0.328125 -0.046875 C 0.296875 -0.0859375 0.28125 -0.132812 0.28125 -0.1875 L 0.28125 -3.140625 C 0.28125 -3.171875 0.285156 -3.191406 0.296875 -3.203125 C 0.304688 -3.210938 0.328125 -3.21875 0.359375 -3.21875 L 1.421875 -3.21875 C 2.140625 -3.21875 2.5 -2.941406 2.5 -2.390625 Z M 1.171875 -2.484375 L 1.171875 -1.875 L 1.1875 -1.875 C 1.476562 -1.875 1.625 -1.972656 1.625 -2.171875 C 1.625 -2.273438 1.597656 -2.351562 1.546875 -2.40625 C 1.492188 -2.457031 1.398438 -2.484375 1.265625 -2.484375 Z M 1.171875 -1.328125 L 1.171875 -0.734375 L 1.25 -0.734375 C 1.382812 -0.734375 1.476562 -0.753906 1.53125 -0.796875 C 1.59375 -0.847656 1.625 -0.925781 1.625 -1.03125 C 1.625 -1.144531 1.597656 -1.222656 1.546875 -1.265625 C 1.492188 -1.304688 1.398438 -1.328125 1.265625 -1.328125 Z M 1.171875 -1.328125 "/></g></g><g style="fill:#000000;fill-opacity:1;"><g transform="translate(19.912019, 23.840207)"><path style="stroke:none" d="M 0.53125 -0.796875 L 0.53125 -2.4375 L 0.203125 -2.4375 C 0.148438 -2.4375 0.113281 -2.5 0.09375 -2.625 C 0.0820312 -2.695312 0.078125 -2.765625 0.078125 -2.828125 C 0.078125 -2.898438 0.0820312 -2.96875 0.09375 -3.03125 C 0.113281 -3.15625 0.148438 -3.21875 0.203125 -3.21875 L 1.75 -3.21875 C 1.800781 -3.21875 1.835938 -3.15625 1.859375 -3.03125 C 1.867188 -2.96875 1.875 -2.898438 1.875 -2.828125 C 1.875 -2.765625 1.867188 -2.695312 1.859375 -2.625 C 1.835938 -2.5 1.800781 -2.4375 1.75 -2.4375 L 1.453125 -2.4375 L 1.453125 -0.796875 L 1.765625 -0.796875 C 1.816406 -0.796875 1.851562 -0.726562 1.875 -0.59375 C 1.894531 -0.53125 1.90625 -0.460938 1.90625 -0.390625 C 1.90625 -0.328125 1.894531 -0.265625 1.875 -0.203125 C 1.851562 -0.0664062 1.816406 0 1.765625 0 L 0.21875 0 C 0.164062 0 0.128906 -0.0664062 0.109375 -0.203125 C 0.0976562 -0.265625 0.09375 -0.328125 0.09375 -0.390625 C 0.09375 -0.460938 0.0976562 -0.53125 0.109375 -0.59375 C 0.128906 -0.726562 0.164062 -0.796875 0.21875 -0.796875 Z M 0.53125 -0.796875 "/></g></g></g></svg>